<svg id="Livello_1" data-name="Livello 1" xmlns="http://www.w3.org/2000/svg" viewBox="0 0 275.22 56.14"><defs><style>.cls-1,.cls-5{fill:#03abe9;}.cls-1,.cls-2{fill-rule:evenodd;}.cls-2,.cls-3,.cls-6{fill:#182c55;}.cls-3{font-size:23.81px;font-family:Arial-BoldMT, Arial;font-weight:700;}.cls-4{fill:#000;}.cls-6{font-size:13.89px;font-family:ArialMT, Arial;}.cls-7{letter-spacing:-0.06em;}</style></defs><title>logo</title><path class="cls-1" d="M27.81,1.15h5.08a1,1,0,0,1,.94.87,3.75,3.75,0,0,0,6.88,1.84A1,1,0,0,1,42,3.58c3.2,1.85,6.39,3.67,9.62,5.46H30.35a19.73,19.73,0,0,0,0,39.46H73.21l-40,7.82a1,1,0,0,1-.36.07H27.81a1,1,0,0,1-.94-.87c-.5-4.25-4.32-5.27-6.88-1.85a1,1,0,0,1-1.25.29l-4.4-2.54A1,1,0,0,1,14,50.19c1.66-3.86-1.17-6.7-5-5a1,1,0,0,1-1.23-.38l-2.54-4.4a1,1,0,0,1,.28-1.25c3.26-2.43,2.2-6.41-1.84-6.88a1,1,0,0,1-.87-.94V26.23a1,1,0,0,1,.87-.94c3.88-.46,5-4.55,1.84-6.88a1,1,0,0,1-.28-1.25l2.54-4.4a1,1,0,0,1,1.23-.38,3.72,3.72,0,0,0,5-5,1,1,0,0,1,.38-1.23l4.4-2.54A1,1,0,0,1,20,3.86,3.75,3.75,0,0,0,26.87,2,1,1,0,0,1,27.81,1.15Z" transform="translate(-2.73 -1.15)"/><path class="cls-2" d="M36.7,12c-2,.33-2.9.54-4.08,2.31A44,44,0,0,0,29.91,20c-.07.17-.17.35-.27.54-.56-.3-.75-.41-.74-.51.08-1.24.2-2.75-2.46-2.6l-1.67.09c-1.32.18-1.85,2.81-.42,3.05l3,.35,1.5.92h0a15.38,15.38,0,0,1-1.35,1.68A13,13,0,0,0,26.19,25c-1.14,1.66-1.11,2.89-1.32,5.12l-.53.46a3.31,3.31,0,0,0-.65,2.2v9.75a2.87,2.87,0,0,0,2.8,3.11h3.36A3.12,3.12,0,0,0,33,42.56V40.85H63v1.71a3.12,3.12,0,0,0,3.12,3.11h3.36a2.86,2.86,0,0,0,2.79-3.11V32.81a3.31,3.31,0,0,0-.64-2.2l-.54-.46c-.2-2.23-.17-3.46-1.32-5.12a11.9,11.9,0,0,0-1.27-1.48,14.24,14.24,0,0,1-1.32-1.64l0,0L68.65,21l3-.35c1.43-.24.9-2.87-.42-3.05l-1.67-.09c-2.67-.15-2.55,1.36-2.46,2.6,0,.1-.18.21-.74.51h0c-.11-.2-.2-.38-.28-.55a45.3,45.3,0,0,0-2.7-5.69c-1.19-1.77-2.08-2-4.08-2.31A78.37,78.37,0,0,0,36.7,12Zm28.47,9.09c-.43.09-.92.17-1.49.27A98.1,98.1,0,0,1,48,22.52c-1.78,0-3.59,0-5.41-.12l1.68-3-1.07-.1-1.7,3.05c-.73,0-1.47-.08-2.2-.14l5.57-9.65c1,0,2.09-.06,3.13-.06a68.52,68.52,0,0,1,11.08.8c1.64.27,2.26.33,3.22,1.76a19.18,19.18,0,0,1,1.44,2.82c.39.89.76,1.79,1.16,2.67a5,5,0,0,0,.28.57Zm-27.23,1L37.2,22l5.37-9.36.83-.05L37.94,22.1Zm-2.6,17.2H28.87v-.2a1,1,0,0,1,.83-1h6.37c.26,0,0,1.22-.72,1.22ZM27.62,26.84c6.21,0,5,1.45,9.65,3.38.67.28,1.66,2.86,1,2.86H28.09a1.66,1.66,0,0,1-1.61-1.52l.13-3.19c0-.88.35-1.53,1-1.53Zm33,12.46c-.68,0-1-1.22-.72-1.22h6.37a1,1,0,0,1,.82,1v.2Zm7.72-12.46c.66,0,1,.65,1,1.53l.13,3.19a1.66,1.66,0,0,1-1.61,1.52H57.71c-.66,0,.33-2.58,1-2.86,4.61-1.93,3.44-3.38,9.65-3.38ZM41,33.08c-1.24-.1-1.29-1.69-1.45-2.86H56.42c-.16,1.17-.21,2.76-1.45,2.86Z" transform="translate(-2.73 -1.15)"/><path class="cls-1" d="M30.35,11.61a17.65,17.65,0,0,1,2.84.23,6.53,6.53,0,0,0-1.64,1.78c-.13.19-.25.38-.37.58-.27,0-.55,0-.83,0A14.59,14.59,0,0,0,22.4,41v1.55a5,5,0,0,0,.25,1.55,17.16,17.16,0,0,1,7.7-32.5Z" transform="translate(-2.73 -1.15)"/><text class="cls-3" transform="translate(81.23 28.08)">GER’S<tspan class="cls-4" x="74.1" y="0"> </tspan><tspan class="cls-5" x="80.72" y="0">GARAGE</tspan></text><text x="-2.73" y="-1.15"/><text class="cls-6" transform="translate(99.58 46.19)"><tspan class="cls-7">V</tspan><tspan x="8.5" y="0">ehicle Service &amp; Repair</tspan></text></svg>