<svg id="Livello_1" data-name="Livello 1" xmlns="http://www.w3.org/2000/svg" viewBox="0 0 90.01 103.62"><defs><style>.cls-1{fill:none;stroke:#182c55;stroke-miterlimit:10;}.cls-2{fill:#182c55;}</style></defs><title>icon3</title><polygon class="cls-1" points="0.76 25.97 45.26 0.58 89.5 26.42 89.24 77.66 44.74 103.05 0.5 77.2 0.76 25.97"/><path class="cls-2" d="M43.26,84.44H32.45A1.19,1.19,0,0,1,31.12,83c.11-1.54.27-3.79.27-4.2a2.46,2.46,0,0,0-.88-1.89c-1.83-1.28-7.78-4.15-10.12-5.81a3.23,3.23,0,0,1-1.46-1.68c-1.84-3.69-6.34-16.35-6.53-16.75a2.53,2.53,0,0,1-.3-1.38c0-.57.71-18.75.71-18.75a2.13,2.13,0,1,1,4.25,0s0,14.22,0,17.61a2.71,2.71,0,0,0,.35,1.27c.8,1.54,3.38,6.38,5,9.5a1.6,1.6,0,0,0,1.12.94l.75.19c.39.1.41-.29.22-.61l-4.64-8.75c-1.36-2.59,2.36-5.43,4.73-2.21.93,1.25,6.63,9.3,9.87,14.16a4.9,4.9,0,0,0,1.89,1.66c5.5,3.24,7.86,6.87,7.86,13.2V83.1C44.26,84.05,44.05,84.44,43.26,84.44Zm6.56,0H60.63A1.19,1.19,0,0,0,62,83c-.11-1.54-.27-3.79-.27-4.2a2.46,2.46,0,0,1,.88-1.89c1.83-1.28,7.78-4.15,10.12-5.81a3.23,3.23,0,0,0,1.46-1.68c1.85-3.69,6.34-16.35,6.53-16.75a2.53,2.53,0,0,0,.3-1.38c0-.57-.7-18.75-.7-18.75a2.13,2.13,0,1,0-4.26,0s0,14.22,0,17.61a2.81,2.81,0,0,1-.34,1.27c-.81,1.54-3.39,6.38-5,9.5a1.64,1.64,0,0,1-1.13.94l-.75.19c-.39.1-.41-.29-.22-.61l4.64-8.75c1.37-2.59-2.36-5.43-4.73-2.21-.92,1.25-6.63,9.3-9.87,14.16a4.83,4.83,0,0,1-1.89,1.66c-5.5,3.24-7.86,6.87-7.86,13.2V83.1C48.82,84.05,49,84.44,49.82,84.44Zm-.69-44.8a.9.9,0,0,0,.91.9H65A6.12,6.12,0,0,1,60,43.05H45.55a10.33,10.33,0,1,1,0-12.25h3l3.1,3.1,3.11-3.1,3.11,3.1,3-3a6.13,6.13,0,0,1,5.22,6.05,6.46,6.46,0,0,1-.27,1.82H50A.9.9,0,0,0,49.13,39.64Zm-14-2.72A2.06,2.06,0,1,0,33.12,39,2.05,2.05,0,0,0,35.18,36.92Z" transform="translate(-1.54 0.58)"/></svg>