<svg id="Livello_1" data-name="Livello 1" xmlns="http://www.w3.org/2000/svg" viewBox="0 0 90.01 103.62"><defs><style>.cls-1{fill:none;stroke:#182c55;stroke-miterlimit:10;}.cls-2{fill:#182c55;}</style></defs><title>icon1</title><polygon class="cls-1" points="0.76 25.97 45.26 0.58 89.5 26.42 89.24 77.66 44.74 103.05 0.5 77.2 0.76 25.97"/><path class="cls-2" d="M50.17,43.18,59.35,34l1.83-5.51L71,22.38l3.67,3.67-6.11,9.8L63,37.67h0l-9.19,9.19Zm-23.59,33A1.13,1.13,0,1,1,25,74.59L40.07,59.5,37.53,57l-15.1,15.1a1.13,1.13,0,1,1-1.6-1.61L35.92,55.35l-2.07-2.08L19,68.1a6.82,6.82,0,0,0,0,9.64l.27.26a6.81,6.81,0,0,0,9.63,0L43.75,63.18,41.68,61.1ZM64.8,71a2.9,2.9,0,1,0,4.1,0A2.89,2.89,0,0,0,64.8,71ZM72,78.2c-2.79,2.78-7.66,2.46-10.84-.71l-28-28A13.77,13.77,0,0,1,16.53,32.88L22,38.3a4.35,4.35,0,0,0,6.15,0l4-4a4.35,4.35,0,0,0,0-6.15l-5.42-5.42A13.77,13.77,0,0,1,43.3,39.39l28,28C74.44,70.54,74.76,75.41,72,78.2Z" transform="translate(-1.54 0.58)"/></svg>