<svg id="Livello_1" data-name="Livello 1" xmlns="http://www.w3.org/2000/svg" viewBox="0 0 90.01 103.62"><defs><style>.cls-1{fill:none;stroke:#182c55;stroke-miterlimit:10;}.cls-2{fill:#182c55;}</style></defs><title>icon2</title><polygon class="cls-1" points="0.76 25.97 45.26 0.58 89.5 26.42 89.24 77.66 44.74 103.05 0.5 77.2 0.76 25.97"/><path class="cls-2" d="M68.78,42c-1.77-2.56-3.49-5-4.16-6-1.61-2.33-2.44-3.36-5.46-3.36H43.52l-1.86,17.1H39.8l.61-5.63L24.76,32.88a2.14,2.14,0,0,0-3.06,3L14.05,45a1.27,1.27,0,0,0-1.1.44L10,49a.93.93,0,1,1-.69-1.54,1.27,1.27,0,1,0,0-2.54,3.47,3.47,0,1,0,0,6.93,3.52,3.52,0,0,0,2.61-1.18l3-3.61a1.26,1.26,0,0,0,.26-1.14l7.38-8.79,5.8,8.91-.57,3.66H19.1l-5.77,5.65v6l3.53,2.15a9.13,9.13,0,0,0,16.7,2.12h32.5A9.13,9.13,0,0,0,82.2,65L85,64V48ZM25.66,65.45a4.39,4.39,0,1,1,4.39-4.39A4.4,4.4,0,0,1,25.66,65.45ZM62.35,43.54H50.49l.28-7.74h8.39c1.47,0,1.47,0,2.83,2,.45.66,1.38,2,2.49,3.59ZM74,65.45a4.39,4.39,0,1,1,4.39-4.39A4.39,4.39,0,0,1,74,65.45Z" transform="translate(-1.54 0.58)"/></svg>