<svg id="Livello_1" data-name="Livello 1" xmlns="http://www.w3.org/2000/svg" viewBox="0 0 275.2 56.2"><defs><style>.cls-1,.cls-7{fill:#03abe9;}.cls-1,.cls-2{fill-rule:evenodd;}.cls-2,.cls-5,.cls-8{fill:#fff;}.cls-3{fill:none;}.cls-4,.cls-5,.cls-6,.cls-7,.cls-8{isolation:isolate;}.cls-5,.cls-6,.cls-7{font-size:23.81px;font-family:Arial-BoldMT, Arial;font-weight:700;}.cls-8{font-size:13.89px;font-family:ArialMT, Arial;}.cls-9{letter-spacing:-0.06em;}</style></defs><title>logoWhite</title><path class="cls-1" d="M30.35,7.1h5.1a.9.9,0,0,1,.9.9,3.74,3.74,0,0,0,6.9,1.8,1,1,0,0,1,1.2-.3c3.2,1.8,6.4,3.7,9.6,5.5H32.85a19.7,19.7,0,0,0,0,39.4h42.9l-40,7.8c-.1,0-.2.1-.4.1h-5.1a.9.9,0,0,1-.9-.9c-.5-4.3-4.3-5.3-6.9-1.8a1,1,0,0,1-1.2.3l-4.4-2.5a1,1,0,0,1-.4-1.2c1.7-3.9-1.2-6.7-5-5a.87.87,0,0,1-1.2-.4l-2.5-4.4a.84.84,0,0,1,.3-1.2c3.3-2.4,2.2-6.4-1.8-6.9-.5-.1-.9-.4-.9-.9V32.3a.9.9,0,0,1,.9-.9c3.9-.5,5-4.5,1.8-6.9a1,1,0,0,1-.3-1.2l2.5-4.4a1,1,0,0,1,1.2-.4c3.5,1.5,6.5-1.6,5-5a.87.87,0,0,1,.4-1.2l4.4-2.5a.84.84,0,0,1,1.2.3,3.78,3.78,0,0,0,6.9-1.8C29.55,7.5,29.85,7.1,30.35,7.1Z" transform="translate(-5.35 -7.1)"/><path class="cls-2" d="M39.25,18c-2,.3-2.9.5-4.1,2.3a49.82,49.82,0,0,0-2.7,5.7,2.19,2.19,0,0,1-.3.5c-.6-.3-.7-.4-.7-.5.1-1.2.2-2.8-2.5-2.6l-1.7.1c-1.3.2-1.8,2.8-.4,3l3,.4,1.5.9h0c-.4.6-.9,1.2-1.3,1.7a8.7,8.7,0,0,0-1.3,1.5c-1.1,1.7-1.1,2.9-1.3,5.1l-.5.5a3.19,3.19,0,0,0-.6,2.2v9.8a2.87,2.87,0,0,0,2.8,3.1h3.4a3.12,3.12,0,0,0,3.1-3.1V46.9h30.1v1.7a3.12,3.12,0,0,0,3.1,3.1h3.4a2.87,2.87,0,0,0,2.8-3.1V38.8a3.8,3.8,0,0,0-.6-2.2l-.8-.5c-.2-2.2-.2-3.5-1.3-5.1a15.26,15.26,0,0,0-1.3-1.5,11.22,11.22,0,0,1-1.3-1.6h0l1.5-.9,3-.4c1.4-.2.9-2.9-.4-3l-1.7-.1c-2.7-.1-2.5,1.4-2.5,2.6,0,.1-.2.2-.7.5h0a2.19,2.19,0,0,0-.3-.5A49.82,49.82,0,0,0,66,20.4c-1.2-1.8-2.1-2-4.1-2.3a74.44,74.44,0,0,0-22.6-.1Zm28.5,9.1q-.6.15-1.5.3a102.71,102.71,0,0,1-15.7,1.1c-1.8,0-3.6,0-5.4-.1l1.7-3-1.1-.1-1.7,3c-.7,0-1.5-.1-2.2-.1l5.6-9.7c1.1,0,2.1-.1,3.1-.1a68.28,68.28,0,0,1,11.1.8c1.6.3,2.3.3,3.2,1.8a14.65,14.65,0,0,1,1.4,2.8l1.2,2.7.3.6Zm-27.2,1a1.7,1.7,0,0,1-.7-.1l5.4-9.4h.8l-5.5,9.5ZM38,45.3h-6.5v-.2a1,1,0,0,1,.8-1h6.4c.3,0,0,1.2-.7,1.2Zm-7.7-12.5c6.2,0,5,1.5,9.7,3.4.7.3,1.7,2.9,1,2.9H30.65a1.62,1.62,0,0,1-1.6-1.5l.1-3.2c.1-.9.4-1.6,1.1-1.6Zm33,12.5c-.7,0-1-1.2-.7-1.2H69a1,1,0,0,1,.8,1v.2ZM71,32.8c.7,0,1,.6,1,1.5l.1,3.2a1.62,1.62,0,0,1-1.6,1.5H60.25c-.7,0,.3-2.6,1-2.9,4.7-1.8,3.5-3.3,9.7-3.3Zm-27.4,6.3c-1.2-.1-1.3-1.7-1.5-2.9H59c-.2,1.2-.2,2.8-1.5,2.9Z" transform="translate(-5.35 -7.1)"/><path class="cls-1" d="M33,17.6a24.58,24.58,0,0,1,2.8.2,5.71,5.71,0,0,0-1.6,1.8,2.09,2.09,0,0,1-.4.6H33A14.59,14.59,0,0,0,25,47v1.5a8.75,8.75,0,0,0,.2,1.6,17.14,17.14,0,0,1-9.5-15.3A17.35,17.35,0,0,1,33,17.6Z" transform="translate(-5.35 -7.1)"/><rect class="cls-3" x="81.2" y="11.1" width="194" height="29.8"/><g class="cls-4"><text class="cls-5" transform="translate(81.2 28.12)">GER’S</text><text class="cls-6" transform="translate(155.3 28.12)"> </text><text class="cls-7" transform="translate(161.9 28.12)">GARAGE</text></g><rect class="cls-3" x="86.3" y="36.3" width="179.4" height="19.9"/><text class="cls-8" transform="translate(99.17 46.22)"><tspan class="cls-9">V</tspan><tspan x="8.5" y="0">ehicle Service &amp; Repair</tspan></text></svg>