<svg xmlns="http://www.w3.org/2000/svg" viewBox="0 0 265.2 55.24"><title>logo</title><path d="M25.08,0h5.08a1,1,0,0,1,.94.87,3.75,3.75,0,0,0,4,3.53A3.76,3.76,0,0,0,38,2.71a1,1,0,0,1,1.29-.28c3.2,1.85,6.39,3.67,9.62,5.46H27.62a19.73,19.73,0,0,0,0,39.46H70.48l-40,7.82a.89.89,0,0,1-.36.07h-5a1,1,0,0,1-.94-.87c-.5-4.25-4.32-5.27-6.88-1.85a1,1,0,0,1-1.25.29l-4.4-2.54A1,1,0,0,1,11.27,49c1.66-3.86-1.17-6.7-5-5A1,1,0,0,1,5,43.66L2.5,39.26A1,1,0,0,1,2.78,38C6,35.58,5,31.6.94,31.13a1,1,0,0,1-.87-.94V25.08a1,1,0,0,1,.87-.94c3.88-.46,5-4.55,1.84-6.88A1,1,0,0,1,2.5,16L5,11.61a1,1,0,0,1,1.23-.38,3.72,3.72,0,0,0,5-5A1,1,0,0,1,11.65,5l4.4-2.54a1,1,0,0,1,1.22.25,3.74,3.74,0,0,0,5.2,1A3.76,3.76,0,0,0,24.14.85,1,1,0,0,1,25.08,0Z" transform="translate(-0.07)" style="fill:#03abe9;fill-rule:evenodd"/><path d="M34,10.85c-2,.33-2.9.54-4.08,2.31a44.24,44.24,0,0,0-2.71,5.69c-.07.17-.17.35-.27.54-.56-.3-.75-.41-.74-.51.08-1.24.2-2.75-2.46-2.6L22,16.37c-1.32.18-1.85,2.81-.42,3.05l3,.35,1.5.92h0a15.51,15.51,0,0,1-1.35,1.68,13.2,13.2,0,0,0-1.31,1.48c-1.14,1.66-1.11,2.89-1.32,5.12l-.53.46a3.33,3.33,0,0,0-.65,2.2v9.75a2.87,2.87,0,0,0,2.62,3.1h3.54a3.12,3.12,0,0,0,3.15-3.08V39.7h30v1.71a3.12,3.12,0,0,0,3.12,3.11h3.36a2.86,2.86,0,0,0,2.8-2.92,1.21,1.21,0,0,0,0-.19V31.66a3.26,3.26,0,0,0-.64-2.2L68.36,29c-.2-2.23-.17-3.46-1.32-5.12a12,12,0,0,0-1.27-1.48,13.93,13.93,0,0,1-1.32-1.64h0l1.47-.91,3-.35c1.43-.24.9-2.87-.42-3.05l-1.67-.09c-2.67-.15-2.55,1.36-2.46,2.6,0,.1-.18.21-.74.51h0c-.11-.2-.2-.38-.28-.55a45.55,45.55,0,0,0-2.7-5.69c-1.19-1.77-2.08-2-4.08-2.31A78.15,78.15,0,0,0,34,10.85Zm28.47,9.09c-.43.09-.92.17-1.49.27a98,98,0,0,1-15.68,1.16c-1.78,0-3.59,0-5.41-.12l1.68-3-1.07-.1-1.7,3.05c-.73,0-1.47-.08-2.2-.14l5.57-9.65c1,0,2.09-.06,3.13-.06a68.52,68.52,0,0,1,11.08.8c1.64.27,2.26.33,3.22,1.76A18.72,18.72,0,0,1,61,16.73c.39.89.76,1.79,1.16,2.67a3.77,3.77,0,0,0,.28.57Zm-27.23,1-.74-.09,5.37-9.36.83-.05L35.21,21Zm-2.6,17.2H26.14v-.2a1,1,0,0,1,.83-1h6.37c.26,0,0,1.22-.72,1.22ZM24.89,25.69c6.21,0,5,1.45,9.65,3.38.67.28,1.66,2.86,1,2.86H25.36a1.66,1.66,0,0,1-1.61-1.52l.13-3.19c0-.88.35-1.53,1-1.53Zm33,12.46c-.68,0-1-1.22-.72-1.22h6.37a1,1,0,0,1,.82,1v.2Zm7.72-12.46c.66,0,1,.65,1,1.53l.13,3.19a1.66,1.66,0,0,1-1.61,1.52H55c-.66,0,.33-2.58,1-2.86,4.61-1.93,3.44-3.38,9.65-3.38ZM38.27,31.93c-1.24-.1-1.29-1.69-1.45-2.86H53.69c-.16,1.17-.21,2.76-1.45,2.86Z" transform="translate(-0.07)" style="fill:#182c55;fill-rule:evenodd"/><path d="M27.62,10.46a18,18,0,0,1,2.84.23,6.62,6.62,0,0,0-1.64,1.78c-.13.19-.25.38-.37.58h-.83a14.59,14.59,0,0,0-7.95,26.8V41.4A5.08,5.08,0,0,0,19.92,43a17.16,17.16,0,0,1,7.7-32.5Z" transform="translate(-0.07)" style="fill:#03abe9;fill-rule:evenodd"/><g style="isolation:isolate"><g style="isolation:isolate"><path d="M90.89,21.81V18.94h7.42v6.79a9.34,9.34,0,0,1-3.13,1.84,11.26,11.26,0,0,1-4.16.8,9.29,9.29,0,0,1-4.66-1.12,7.15,7.15,0,0,1-3-3.21,10.3,10.3,0,0,1-1-4.54,9.75,9.75,0,0,1,1.12-4.73,7.53,7.53,0,0,1,3.26-3.18,8.93,8.93,0,0,1,4.08-.84,8.12,8.12,0,0,1,5,1.33,6,6,0,0,1,2.3,3.68l-3.42.64a3.61,3.61,0,0,0-1.36-2,4.09,4.09,0,0,0-2.48-.72,4.62,4.62,0,0,0-3.58,1.43,6,6,0,0,0-1.33,4.24,6.67,6.67,0,0,0,1.34,4.55,4.52,4.52,0,0,0,3.54,1.52A5.82,5.82,0,0,0,93,25a7.47,7.47,0,0,0,1.86-1V21.81Z" transform="translate(-0.07)" style="fill:#182c55"/><path d="M101.48,28.08V11h12.64v2.88h-9.2V17.7h8.56v2.87h-8.56v4.64h9.53v2.87Z" transform="translate(-0.07)" style="fill:#182c55"/><path d="M117.38,28.08V11h7.24a12.3,12.3,0,0,1,4,.46,3.93,3.93,0,0,1,2,1.63,4.87,4.87,0,0,1,.74,2.68A4.55,4.55,0,0,1,130.19,19a5.41,5.41,0,0,1-3.37,1.58A8.09,8.09,0,0,1,128.66,22a19.85,19.85,0,0,1,2,2.76l2.08,3.33h-4.12l-2.49-3.71a22.79,22.79,0,0,0-1.81-2.5,2.59,2.59,0,0,0-1-.71,5.64,5.64,0,0,0-1.74-.2h-.69v7.12Zm3.44-9.84h2.54a14.11,14.11,0,0,0,3.1-.2,1.81,1.81,0,0,0,1-.73,2.21,2.21,0,0,0,.35-1.27,2,2,0,0,0-.46-1.39A2.07,2.07,0,0,0,126,14c-.28,0-1.11-.06-2.51-.06h-2.68Z" transform="translate(-0.07)" style="fill:#182c55"/><path d="M134.45,11.08h3.27v2.34a8.29,8.29,0,0,1-.24,2.24,3.43,3.43,0,0,1-.93,1.47,4.85,4.85,0,0,1-1.72,1l-.64-1.35a2.68,2.68,0,0,0,1.4-.89,2.72,2.72,0,0,0,.45-1.56h-1.59Z" transform="translate(-0.07)" style="fill:#182c55"/><path d="M140.3,22.53l3.35-.32a4.09,4.09,0,0,0,1.23,2.48,3.72,3.72,0,0,0,2.49.79,3.85,3.85,0,0,0,2.51-.71,2.1,2.1,0,0,0,.84-1.64,1.52,1.52,0,0,0-.36-1,2.85,2.85,0,0,0-1.23-.74c-.41-.14-1.33-.39-2.76-.74a9.32,9.32,0,0,1-3.88-1.69,4.43,4.43,0,0,1-1.57-3.43,4.29,4.29,0,0,1,.74-2.43,4.57,4.57,0,0,1,2.12-1.73,8.49,8.49,0,0,1,3.36-.59,7.18,7.18,0,0,1,4.83,1.4,5,5,0,0,1,1.7,3.76l-3.44.15a2.89,2.89,0,0,0-.95-1.89,3.48,3.48,0,0,0-2.18-.58,4,4,0,0,0-2.35.62,1.25,1.25,0,0,0-.54,1.06,1.3,1.3,0,0,0,.51,1,8.8,8.8,0,0,0,3.16,1.14,17.14,17.14,0,0,1,3.72,1.23,4.76,4.76,0,0,1,1.88,1.73,5.1,5.1,0,0,1,.68,2.72,5,5,0,0,1-.81,2.74,4.88,4.88,0,0,1-2.31,1.9,9.69,9.69,0,0,1-3.7.62,7.43,7.43,0,0,1-5-1.49A6.56,6.56,0,0,1,140.3,22.53Z" transform="translate(-0.07)" style="fill:#182c55"/></g><g style="isolation:isolate"><path d="M171.61,21.81V18.94H179v6.79a9.34,9.34,0,0,1-3.13,1.84,11.26,11.26,0,0,1-4.16.8,9.29,9.29,0,0,1-4.66-1.12,7.15,7.15,0,0,1-3-3.21,10.3,10.3,0,0,1-1-4.54,9.75,9.75,0,0,1,1.12-4.73,7.53,7.53,0,0,1,3.26-3.18,8.93,8.93,0,0,1,4.08-.84,8.12,8.12,0,0,1,5,1.33,6,6,0,0,1,2.3,3.68l-3.42.64a3.64,3.64,0,0,0-1.35-2,4.17,4.17,0,0,0-2.49-.72A4.62,4.62,0,0,0,168,15.12a6,6,0,0,0-1.34,4.24A6.67,6.67,0,0,0,168,23.91a4.52,4.52,0,0,0,3.54,1.52,5.82,5.82,0,0,0,2.17-.43,7.47,7.47,0,0,0,1.86-1V21.81Z" transform="translate(-0.07)" style="fill:#03abe9"/><path d="M197.57,28.08h-3.74l-1.49-3.87h-6.81l-1.41,3.87h-3.65l6.64-17h3.64Zm-6.33-6.74L188.89,15l-2.31,6.33Z" transform="translate(-0.07)" style="fill:#03abe9"/><path d="M199.41,28.08V11h7.24a12.26,12.26,0,0,1,4,.46,3.85,3.85,0,0,1,2,1.63,4.87,4.87,0,0,1,.75,2.68A4.56,4.56,0,0,1,212.22,19a5.41,5.41,0,0,1-3.37,1.58A7.87,7.87,0,0,1,210.69,22a19,19,0,0,1,2,2.76l2.08,3.33h-4.11l-2.49-3.71a23.82,23.82,0,0,0-1.82-2.5,2.59,2.59,0,0,0-1-.71,5.52,5.52,0,0,0-1.73-.2h-.7v7.12Zm3.44-9.84h2.55a13.93,13.93,0,0,0,3.09-.2,1.81,1.81,0,0,0,1-.73A2.14,2.14,0,0,0,209.8,16a2,2,0,0,0-.46-1.39,2,2,0,0,0-1.29-.67c-.28,0-1.12-.06-2.51-.06h-2.69Z" transform="translate(-0.07)" style="fill:#03abe9"/><path d="M232,28.08h-3.74l-1.49-3.87h-6.81l-1.41,3.87h-3.65l6.64-17h3.64Zm-6.33-6.74L223.28,15,221,21.34Z" transform="translate(-0.07)" style="fill:#03abe9"/><path d="M241.72,21.81V18.94h7.41v6.79A9.23,9.23,0,0,1,246,27.57a11.22,11.22,0,0,1-4.16.8,9.32,9.32,0,0,1-4.66-1.12,7.21,7.21,0,0,1-3-3.21,10.44,10.44,0,0,1-1-4.54,9.87,9.87,0,0,1,1.12-4.73,7.5,7.5,0,0,1,3.27-3.18,8.87,8.87,0,0,1,4.08-.84,8.14,8.14,0,0,1,5,1.33,6,6,0,0,1,2.29,3.68l-3.42.64a3.64,3.64,0,0,0-1.35-2,4.11,4.11,0,0,0-2.48-.72,4.64,4.64,0,0,0-3.59,1.43,6,6,0,0,0-1.33,4.24,6.67,6.67,0,0,0,1.35,4.55,4.51,4.51,0,0,0,3.53,1.52,5.79,5.79,0,0,0,2.17-.43,7.37,7.37,0,0,0,1.87-1V21.81Z" transform="translate(-0.07)" style="fill:#03abe9"/><path d="M252.31,28.08V11h12.63v2.88h-9.19V17.7h8.56v2.87h-8.56v4.64h9.52v2.87Z" transform="translate(-0.07)" style="fill:#03abe9"/></g></g><g style="isolation:isolate"><g style="isolation:isolate"><path d="M103.49,46.19l-3.85-9.94h1.43l2.58,7.22c.21.58.38,1.12.52,1.63.16-.54.33-1.09.54-1.63l2.68-7.22h1.35l-3.9,9.94Z" transform="translate(-0.07)" style="fill:#182c55"/></g><g style="isolation:isolate"><path d="M113.93,43.87l1.26.16a3.06,3.06,0,0,1-1.11,1.71,3.75,3.75,0,0,1-4.57-.36,3.84,3.84,0,0,1-.92-2.73,4,4,0,0,1,.93-2.82,3.18,3.18,0,0,1,2.43-1,3.05,3.05,0,0,1,2.36,1,3.91,3.91,0,0,1,.92,2.77c0,.07,0,.18,0,.32h-5.37a2.81,2.81,0,0,0,.67,1.82,2,2,0,0,0,1.51.63,1.86,1.86,0,0,0,1.14-.35A2.37,2.37,0,0,0,113.93,43.87Zm-4-2h4a2.46,2.46,0,0,0-.46-1.37,1.86,1.86,0,0,0-1.51-.7,2,2,0,0,0-1.42.56A2.25,2.25,0,0,0,109.92,41.9Z" transform="translate(-0.07)" style="fill:#182c55"/><path d="M116.72,46.19V36.25h1.22v3.57a2.73,2.73,0,0,1,2.16-1,2.91,2.91,0,0,1,1.39.31,1.86,1.86,0,0,1,.84.87,4,4,0,0,1,.26,1.62v4.56h-1.22V41.63a1.93,1.93,0,0,0-.4-1.34,1.5,1.5,0,0,0-1.12-.41,2,2,0,0,0-1,.28,1.56,1.56,0,0,0-.68.76,3.39,3.39,0,0,0-.21,1.33v3.94Z" transform="translate(-0.07)" style="fill:#182c55"/><path d="M124.45,37.65v-1.4h1.22v1.4Zm0,8.54V39h1.22v7.2Z" transform="translate(-0.07)" style="fill:#182c55"/><path d="M132.23,43.55l1.2.16a3.1,3.1,0,0,1-1,1.94,2.91,2.91,0,0,1-2,.7,3.1,3.1,0,0,1-2.37-1,3.93,3.93,0,0,1-.9-2.77,5.12,5.12,0,0,1,.38-2,2.68,2.68,0,0,1,1.18-1.32,3.51,3.51,0,0,1,1.72-.43,3,3,0,0,1,1.92.59,2.71,2.71,0,0,1,1,1.68l-1.19.19a1.9,1.9,0,0,0-.6-1.09,1.52,1.52,0,0,0-1-.37,1.89,1.89,0,0,0-1.5.66,3.11,3.11,0,0,0-.58,2.09,3.25,3.25,0,0,0,.56,2.11,1.8,1.8,0,0,0,1.45.66,1.72,1.72,0,0,0,1.2-.44A2.19,2.19,0,0,0,132.23,43.55Z" transform="translate(-0.07)" style="fill:#182c55"/><path d="M134.45,46.19V36.25h1.22v9.94Z" transform="translate(-0.07)" style="fill:#182c55"/><path d="M142.49,43.87l1.26.16a3,3,0,0,1-1.1,1.71,3.75,3.75,0,0,1-4.57-.36,3.79,3.79,0,0,1-.92-2.73,4,4,0,0,1,.93-2.82,3.17,3.17,0,0,1,2.43-1,3.06,3.06,0,0,1,2.36,1,3.9,3.9,0,0,1,.91,2.77v.32h-5.37a2.76,2.76,0,0,0,.67,1.82,2,2,0,0,0,1.5.63,1.91,1.91,0,0,0,1.15-.35A2.29,2.29,0,0,0,142.49,43.87Zm-4-2h4a2.46,2.46,0,0,0-.47-1.37,1.85,1.85,0,0,0-1.51-.7,2,2,0,0,0-1.41.56A2.3,2.3,0,0,0,138.48,41.9Z" transform="translate(-0.07)" style="fill:#182c55"/><path d="M148.85,43l1.25-.11a2.6,2.6,0,0,0,.41,1.22,2.12,2.12,0,0,0,1,.77,3.72,3.72,0,0,0,1.52.3,3.64,3.64,0,0,0,1.33-.22,1.85,1.85,0,0,0,.86-.62,1.4,1.4,0,0,0,.28-.85,1.32,1.32,0,0,0-.27-.82,2,2,0,0,0-.9-.58,14.87,14.87,0,0,0-1.77-.49,8.6,8.6,0,0,1-1.91-.62,2.8,2.8,0,0,1-1.07-.92,2.32,2.32,0,0,1-.35-1.24,2.58,2.58,0,0,1,1.68-2.4,4.65,4.65,0,0,1,1.82-.34,5.1,5.1,0,0,1,2,.35,2.79,2.79,0,0,1,1.3,1,2.94,2.94,0,0,1,.49,1.57l-1.26.09a2.05,2.05,0,0,0-.69-1.42,2.68,2.68,0,0,0-1.73-.48,2.71,2.71,0,0,0-1.74.44,1.29,1.29,0,0,0-.55,1,1.12,1.12,0,0,0,.39.88,5.15,5.15,0,0,0,2,.71,12.85,12.85,0,0,1,2.2.63,3.09,3.09,0,0,1,1.29,1,2.51,2.51,0,0,1,.41,1.41,2.74,2.74,0,0,1-.45,1.5A3,3,0,0,1,155,46a4.57,4.57,0,0,1-1.92.39,5.76,5.76,0,0,1-2.26-.39,3.22,3.22,0,0,1-1.43-1.19A3.31,3.31,0,0,1,148.85,43Z" transform="translate(-0.07)" style="fill:#182c55"/><path d="M163.34,43.87l1.26.16a3.05,3.05,0,0,1-1.1,1.71,3.75,3.75,0,0,1-4.57-.36,3.8,3.8,0,0,1-.93-2.73,4,4,0,0,1,.94-2.82,3.15,3.15,0,0,1,2.43-1,3.06,3.06,0,0,1,2.36,1,3.9,3.9,0,0,1,.91,2.77v.32h-5.38a2.77,2.77,0,0,0,.68,1.82,2,2,0,0,0,1.5.63,1.91,1.91,0,0,0,1.15-.35A2.36,2.36,0,0,0,163.34,43.87Zm-4-2h4a2.39,2.39,0,0,0-.46-1.37,1.86,1.86,0,0,0-1.51-.7,2,2,0,0,0-1.41.56A2.21,2.21,0,0,0,159.33,41.9Z" transform="translate(-0.07)" style="fill:#182c55"/><path d="M166.12,46.19V39h1.1v1.09a2.92,2.92,0,0,1,.78-1,1.36,1.36,0,0,1,.78-.24,2.43,2.43,0,0,1,1.26.39l-.42,1.13a1.72,1.72,0,0,0-.9-.26,1.16,1.16,0,0,0-.72.24,1.29,1.29,0,0,0-.45.67,4.55,4.55,0,0,0-.21,1.42v3.77Z" transform="translate(-0.07)" style="fill:#182c55"/><path d="M172.76,46.19,170,39h1.29l1.55,4.31c.16.47.32,1,.46,1.45.11-.38.26-.83.45-1.37l1.6-4.39h1.26l-2.73,7.2Z" transform="translate(-0.07)" style="fill:#182c55"/><path d="M177.71,37.65v-1.4h1.22v1.4Zm0,8.54V39h1.22v7.2Z" transform="translate(-0.07)" style="fill:#182c55"/><path d="M185.49,43.55l1.2.16a3.09,3.09,0,0,1-1,1.94,3,3,0,0,1-2,.7,3.1,3.1,0,0,1-2.37-1,3.93,3.93,0,0,1-.9-2.77,5,5,0,0,1,.39-2A2.66,2.66,0,0,1,182,39.26a3.51,3.51,0,0,1,1.72-.43,3,3,0,0,1,1.92.59,2.71,2.71,0,0,1,1,1.68l-1.19.19a1.9,1.9,0,0,0-.6-1.09,1.52,1.52,0,0,0-1-.37,1.89,1.89,0,0,0-1.5.66,3.16,3.16,0,0,0-.58,2.09,3.25,3.25,0,0,0,.56,2.11,1.8,1.8,0,0,0,1.45.66,1.72,1.72,0,0,0,1.2-.44A2.19,2.19,0,0,0,185.49,43.55Z" transform="translate(-0.07)" style="fill:#182c55"/><path d="M192.67,43.87l1.26.16a3.06,3.06,0,0,1-1.11,1.71,3.74,3.74,0,0,1-4.56-.36,3.8,3.8,0,0,1-.93-2.73,4,4,0,0,1,.94-2.82,3.15,3.15,0,0,1,2.42-1,3.05,3.05,0,0,1,2.36,1,3.86,3.86,0,0,1,.92,2.77c0,.07,0,.18,0,.32h-5.37a2.81,2.81,0,0,0,.67,1.82,2,2,0,0,0,1.51.63,1.91,1.91,0,0,0,1.15-.35A2.43,2.43,0,0,0,192.67,43.87Zm-4-2h4a2.46,2.46,0,0,0-.46-1.37,1.86,1.86,0,0,0-1.51-.7,2,2,0,0,0-1.42.56A2.25,2.25,0,0,0,188.66,41.9Z" transform="translate(-0.07)" style="fill:#182c55"/><path d="M205,45a4.2,4.2,0,0,1-1.31,1,3.5,3.5,0,0,1-1.54.34,3,3,0,0,1-2.42-1,2.78,2.78,0,0,1-.73-1.88,2.57,2.57,0,0,1,.6-1.66,4.86,4.86,0,0,1,1.77-1.31,5.85,5.85,0,0,1-.9-1.26,2.33,2.33,0,0,1-.22-.92,2.06,2.06,0,0,1,.7-1.56,2.49,2.49,0,0,1,1.77-.66,2.3,2.3,0,0,1,1.66.62,2,2,0,0,1,.65,1.5c0,.95-.62,1.75-1.88,2.42l1.79,2.27a5.44,5.44,0,0,0,.47-1.38l1.27.27a7,7,0,0,1-.88,2.14,6.81,6.81,0,0,0,1.55,1.53l-.82,1A7.36,7.36,0,0,1,205,45Zm-.76-1L202,41.28a4.22,4.22,0,0,0-1.34,1.1,1.74,1.74,0,0,0-.34,1,2.12,2.12,0,0,0,.48,1.25,1.61,1.61,0,0,0,1.36.65,2.23,2.23,0,0,0,1.14-.34A2.77,2.77,0,0,0,204.24,44.05Zm-1.72-4.21a3.34,3.34,0,0,0,1-.83,1.32,1.32,0,0,0,.23-.77,1.13,1.13,0,0,0-.32-.84,1.09,1.09,0,0,0-.8-.32,1.16,1.16,0,0,0-.83.32,1,1,0,0,0-.33.78,1.17,1.17,0,0,0,.12.49,3.15,3.15,0,0,0,.36.54Z" transform="translate(-0.07)" style="fill:#182c55"/><path d="M212.62,46.19V36.25H217a5.8,5.8,0,0,1,2,.27,2.2,2.2,0,0,1,1.11.94,2.86,2.86,0,0,1,.41,1.5,2.47,2.47,0,0,1-.69,1.78,3.4,3.4,0,0,1-2.11.93,3.19,3.19,0,0,1,.79.49,6.67,6.67,0,0,1,1.09,1.32l1.73,2.71h-1.65l-1.32-2.07c-.38-.59-.7-1-.95-1.37a3.11,3.11,0,0,0-.66-.66,2,2,0,0,0-.6-.27,4.4,4.4,0,0,0-.74,0h-1.52v4.41Zm1.32-5.55h2.82a4.37,4.37,0,0,0,1.42-.19,1.49,1.49,0,0,0,.77-.6,1.57,1.57,0,0,0,.26-.89,1.48,1.48,0,0,0-.51-1.16,2.41,2.41,0,0,0-1.62-.45h-3.14Z" transform="translate(-0.07)" style="fill:#182c55"/><path d="M227.41,43.87l1.26.16a3.06,3.06,0,0,1-1.11,1.71,3.75,3.75,0,0,1-4.57-.36,3.84,3.84,0,0,1-.92-2.73,4,4,0,0,1,.93-2.82,3.18,3.18,0,0,1,2.43-1,3.05,3.05,0,0,1,2.36,1,3.91,3.91,0,0,1,.92,2.77c0,.07,0,.18,0,.32h-5.37a2.81,2.81,0,0,0,.67,1.82,2,2,0,0,0,1.51.63,1.86,1.86,0,0,0,1.14-.35A2.37,2.37,0,0,0,227.41,43.87Zm-4-2h4a2.46,2.46,0,0,0-.46-1.37,1.86,1.86,0,0,0-1.51-.7,2,2,0,0,0-1.42.56A2.25,2.25,0,0,0,223.4,41.9Z" transform="translate(-0.07)" style="fill:#182c55"/><path d="M230.2,49V39h1.11v.93a2.85,2.85,0,0,1,.89-.82,2.47,2.47,0,0,1,1.2-.27,2.81,2.81,0,0,1,1.63.47,2.91,2.91,0,0,1,1.06,1.34,5.23,5.23,0,0,1,0,3.89,3,3,0,0,1-1.16,1.35,2.89,2.89,0,0,1-1.59.47,2.3,2.3,0,0,1-1.09-.25,2.49,2.49,0,0,1-.8-.66V49Zm1.11-6.32a3.08,3.08,0,0,0,.56,2,1.7,1.7,0,0,0,1.36.67,1.78,1.78,0,0,0,1.4-.69,3.3,3.3,0,0,0,.58-2.13,3.15,3.15,0,0,0-.57-2.06,1.7,1.7,0,0,0-1.35-.69,1.75,1.75,0,0,0-1.38.73A3.27,3.27,0,0,0,231.31,42.63Z" transform="translate(-0.07)" style="fill:#182c55"/><path d="M242.63,45.3a4.59,4.59,0,0,1-1.31.82,4,4,0,0,1-1.35.23,2.58,2.58,0,0,1-1.82-.58,1.89,1.89,0,0,1-.64-1.48,2,2,0,0,1,.87-1.67,3.21,3.21,0,0,1,.88-.4,9.72,9.72,0,0,1,1.09-.18,11.48,11.48,0,0,0,2.17-.42c0-.17,0-.27,0-.32a1.3,1.3,0,0,0-.35-1,2,2,0,0,0-1.39-.41,2.18,2.18,0,0,0-1.27.3,1.82,1.82,0,0,0-.6,1.07l-1.2-.17a3,3,0,0,1,.54-1.24,2.39,2.39,0,0,1,1.08-.72,4.77,4.77,0,0,1,1.63-.25,4.47,4.47,0,0,1,1.5.21,2.05,2.05,0,0,1,.85.55,1.88,1.88,0,0,1,.38.83,6.94,6.94,0,0,1,.06,1.12v1.63a15.68,15.68,0,0,0,.08,2.16,2.67,2.67,0,0,0,.3.86h-1.27A2.38,2.38,0,0,1,242.63,45.3Zm-.11-2.72a9.07,9.07,0,0,1-2,.46,4.67,4.67,0,0,0-1.07.24,1.1,1.1,0,0,0-.48.4,1,1,0,0,0-.17.58,1.07,1.07,0,0,0,.37.81,1.6,1.6,0,0,0,1.09.33,2.57,2.57,0,0,0,1.25-.31,1.9,1.9,0,0,0,.81-.85,3,3,0,0,0,.19-1.22Z" transform="translate(-0.07)" style="fill:#182c55"/><path d="M245.66,37.65v-1.4h1.22v1.4Zm0,8.54V39h1.22v7.2Z" transform="translate(-0.07)" style="fill:#182c55"/><path d="M248.72,46.19V39h1.1v1.09a2.92,2.92,0,0,1,.78-1,1.36,1.36,0,0,1,.78-.24,2.43,2.43,0,0,1,1.26.39l-.42,1.13a1.72,1.72,0,0,0-.9-.26,1.16,1.16,0,0,0-.72.24,1.29,1.29,0,0,0-.45.67,4.55,4.55,0,0,0-.21,1.42v3.77Z" transform="translate(-0.07)" style="fill:#182c55"/></g></g></svg>